<?xml version="1.0" standalone="no"?>
<!DOCTYPE svg PUBLIC "-//W3C//DTD SVG 20010904//EN"
 "http://www.w3.org/TR/2001/REC-SVG-20010904/DTD/svg10.dtd">
<svg version="1.0" xmlns="http://www.w3.org/2000/svg"
 width="240.000000pt" height="240.000000pt" viewBox="0 0 240.000000 240.000000"
 preserveAspectRatio="xMidYMid meet">
<metadata>
Created by potrace 1.14, written by Peter Selinger 2001-2017
</metadata>
<g transform="translate(0.000000,240.000000) scale(0.100000,-0.100000)"
fill="#000000" stroke="none">
<path d="M0 1200 l0 -1200 1200 0 1200 0 0 1200 0 1200 -1200 0 -1200 0 0
-1200z m590 406 c36 -8 119 -30 185 -51 170 -51 206 -55 245 -21 43 36 64 35
57 -3 -11 -53 41 -52 141 1 61 31 100 34 245 18 l89 -10 54 30 c66 38 108 38
112 -1 3 -29 -23 -52 -78 -66 -53 -14 -73 -50 -78 -140 -5 -91 -3 -93 77 -117
51 -15 55 -15 102 5 55 24 132 100 174 174 45 77 76 113 130 149 56 38 93 50
115 36 18 -11 18 -12 -60 -52 -55 -28 -73 -45 -118 -108 -104 -149 -118 -165
-167 -202 -27 -21 -50 -44 -50 -52 0 -22 183 -215 234 -248 25 -15 58 -28 74
-28 30 0 97 35 97 50 0 16 31 20 37 4 13 -34 -71 -94 -132 -94 -62 0 -105 29
-225 150 -138 140 -158 152 -230 141 -60 -10 -75 -24 -84 -82 -15 -95 -75
-176 -153 -205 -88 -34 -250 -1 -287 58 -19 31 3 32 55 3 74 -40 170 -46 233
-15 69 33 113 117 117 219 0 25 7 111 15 190 8 80 11 148 7 152 -5 4 -44 12
-88 18 l-80 10 -75 -38 c-86 -44 -110 -74 -94 -118 5 -15 24 -37 41 -48 52
-33 38 -69 -16 -41 -39 21 -71 63 -71 95 0 58 -9 69 -60 76 -29 4 -56 2 -69
-4 -31 -17 -49 -98 -54 -246 -6 -140 -20 -196 -63 -252 -76 -99 -254 -108
-355 -16 -52 47 -65 71 -44 79 11 5 30 -7 57 -35 101 -102 263 -88 327 27 20
37 24 64 32 195 5 84 14 176 21 205 6 28 8 55 5 58 -3 4 -52 22 -109 40 -256
84 -377 98 -458 54 -62 -35 -90 -80 -90 -145 0 -154 191 -184 281 -44 34 51
46 59 55 34 12 -30 -58 -115 -120 -147 -50 -26 -143 -22 -183 8 -87 65 -102
169 -39 262 60 89 169 119 316 88z"/>
</g>
</svg>
